<mxfile host="app.diagrams.net" modified="2020-12-09T08:37:31.033Z" agent="5.0 (Macintosh; Intel Mac OS X 10_14_5) AppleWebKit/537.36 (KHTML, like Gecko) Chrome/87.0.4280.88 Safari/537.36" etag="XzDvM_jKzmwq0GMNXJwR" version="13.11.0" type="github">
  <diagram name="Page-1" id="13e1069c-82ec-6db2-03f1-153e76fe0fe0">
    <mxGraphModel dx="1426" dy="771" grid="1" gridSize="10" guides="1" tooltips="1" connect="1" arrows="1" fold="1" page="1" pageScale="1" pageWidth="1169" pageHeight="827" background="#283618" math="0" shadow="0">
      <root>
        <mxCell id="0" />
        <mxCell id="1" parent="0" />
        <mxCell id="7baba1c4bc27f4b0-2" value="实例化" style="shape=umlLifeline;perimeter=lifelinePerimeter;whiteSpace=wrap;html=1;container=1;collapsible=0;recursiveResize=0;outlineConnect=0;rounded=1;shadow=0;comic=0;labelBackgroundColor=none;strokeWidth=1;fontFamily=Verdana;fontSize=12;align=center;fillColor=#BC6C25;strokeColor=#DDA15E;fontColor=#FEFAE0;" parent="1" vertex="1">
          <mxGeometry x="350" y="80" width="110" height="580" as="geometry" />
        </mxCell>
        <mxCell id="7baba1c4bc27f4b0-10" value="实例化A对象" style="html=1;points=[];perimeter=orthogonalPerimeter;rounded=0;shadow=0;comic=0;labelBackgroundColor=none;strokeWidth=1;fontFamily=Verdana;fontSize=12;align=center;fillColor=#BC6C25;strokeColor=#DDA15E;fontColor=#FEFAE0;" parent="7baba1c4bc27f4b0-2" vertex="1">
          <mxGeometry y="100" width="110" height="50" as="geometry" />
        </mxCell>
        <mxCell id="7baba1c4bc27f4b0-3" value="初始化" style="shape=umlLifeline;perimeter=lifelinePerimeter;whiteSpace=wrap;html=1;container=1;collapsible=0;recursiveResize=0;outlineConnect=0;rounded=1;shadow=0;comic=0;labelBackgroundColor=none;strokeWidth=1;fontFamily=Verdana;fontSize=12;align=center;fillColor=#BC6C25;strokeColor=#DDA15E;fontColor=#FEFAE0;" parent="1" vertex="1">
          <mxGeometry x="640" y="80" width="120" height="580" as="geometry" />
        </mxCell>
        <mxCell id="7baba1c4bc27f4b0-4" value="初始化" style="shape=umlLifeline;perimeter=lifelinePerimeter;whiteSpace=wrap;html=1;container=1;collapsible=0;recursiveResize=0;outlineConnect=0;rounded=1;shadow=0;comic=0;labelBackgroundColor=none;strokeWidth=1;fontFamily=Verdana;fontSize=12;align=center;fillColor=#BC6C25;strokeColor=#DDA15E;fontColor=#FEFAE0;" parent="1" vertex="1">
          <mxGeometry x="960" y="80" width="100" height="580" as="geometry" />
        </mxCell>
        <mxCell id="7baba1c4bc27f4b0-8" value="初始化" style="shape=umlLifeline;perimeter=lifelinePerimeter;whiteSpace=wrap;html=1;container=1;collapsible=0;recursiveResize=0;outlineConnect=0;rounded=1;shadow=0;comic=0;labelBackgroundColor=none;strokeWidth=1;fontFamily=Verdana;fontSize=12;align=center;fillColor=#BC6C25;strokeColor=#DDA15E;fontColor=#FEFAE0;" parent="1" vertex="1">
          <mxGeometry x="70" y="80" width="110" height="580" as="geometry" />
        </mxCell>
        <mxCell id="7baba1c4bc27f4b0-9" value="getBean(A.class)" style="html=1;points=[];perimeter=orthogonalPerimeter;rounded=0;shadow=0;comic=0;labelBackgroundColor=none;strokeWidth=1;fontFamily=Verdana;fontSize=12;align=center;fillColor=#BC6C25;strokeColor=#DDA15E;fontColor=#FEFAE0;" parent="7baba1c4bc27f4b0-8" vertex="1">
          <mxGeometry x="-10" y="100" width="120" height="50" as="geometry" />
        </mxCell>
        <mxCell id="7baba1c4bc27f4b0-17" value="依赖属性b" style="html=1;verticalAlign=bottom;endArrow=block;labelBackgroundColor=none;fontFamily=Verdana;fontSize=12;edgeStyle=elbowEdgeStyle;elbow=vertical;strokeColor=#DDA15E;fontColor=#FEFAE0;entryX=0.207;entryY=0.02;entryDx=0;entryDy=0;entryPerimeter=0;" parent="1" target="IWy26c3lg2tNG-WhKrLl-3" edge="1">
          <mxGeometry relative="1" as="geometry">
            <mxPoint x="359" y="230" as="sourcePoint" />
            <Array as="points">
              <mxPoint x="370" y="346" />
            </Array>
          </mxGeometry>
        </mxCell>
        <mxCell id="7baba1c4bc27f4b0-11" value="尝试获取A对象" style="html=1;verticalAlign=bottom;endArrow=block;labelBackgroundColor=none;fontFamily=Verdana;fontSize=12;edgeStyle=elbowEdgeStyle;elbow=vertical;strokeColor=#DDA15E;fontColor=#FEFAE0;exitX=0.983;exitY=1.02;exitDx=0;exitDy=0;exitPerimeter=0;" parent="1" source="7baba1c4bc27f4b0-9" edge="1">
          <mxGeometry x="-0.049" relative="1" as="geometry">
            <mxPoint x="210" y="230" as="sourcePoint" />
            <mxPoint x="350" y="230" as="targetPoint" />
            <Array as="points">
              <mxPoint x="290" y="230" />
            </Array>
            <mxPoint as="offset" />
          </mxGeometry>
        </mxCell>
        <mxCell id="7baba1c4bc27f4b0-14" value="返回成品A对象" style="html=1;verticalAlign=bottom;endArrow=block;entryX=1;entryY=0.06;labelBackgroundColor=none;fontFamily=Verdana;fontSize=12;edgeStyle=elbowEdgeStyle;elbow=vertical;strokeColor=#82b366;fontColor=#FEFAE0;entryDx=0;entryDy=0;entryPerimeter=0;fillColor=#d5e8d4;" parent="1" source="7baba1c4bc27f4b0-10" target="7baba1c4bc27f4b0-9" edge="1">
          <mxGeometry relative="1" as="geometry">
            <mxPoint x="370" y="200" as="sourcePoint" />
          </mxGeometry>
        </mxCell>
        <mxCell id="IWy26c3lg2tNG-WhKrLl-3" value="getBean(B.class)" style="html=1;points=[];perimeter=orthogonalPerimeter;rounded=0;shadow=0;comic=0;labelBackgroundColor=none;strokeWidth=1;fontFamily=Verdana;fontSize=12;align=center;fillColor=#BC6C25;strokeColor=#DDA15E;fontColor=#FEFAE0;" vertex="1" parent="1">
          <mxGeometry x="330" y="350" width="140" height="50" as="geometry" />
        </mxCell>
        <mxCell id="IWy26c3lg2tNG-WhKrLl-4" value="注入属性b" style="html=1;verticalAlign=bottom;endArrow=block;labelBackgroundColor=none;fontFamily=Verdana;fontSize=12;edgeStyle=elbowEdgeStyle;elbow=vertical;strokeColor=#82b366;fontColor=#FEFAE0;fillColor=#d5e8d4;" edge="1" parent="1" source="IWy26c3lg2tNG-WhKrLl-3">
          <mxGeometry x="-0.0598" relative="1" as="geometry">
            <mxPoint x="450" y="280" as="sourcePoint" />
            <Array as="points">
              <mxPoint x="450" y="260" />
            </Array>
            <mxPoint x="450" y="228" as="targetPoint" />
            <mxPoint as="offset" />
          </mxGeometry>
        </mxCell>
        <mxCell id="IWy26c3lg2tNG-WhKrLl-6" value="实例化B对象" style="html=1;points=[];perimeter=orthogonalPerimeter;rounded=0;shadow=0;comic=0;labelBackgroundColor=none;strokeWidth=1;fontFamily=Verdana;fontSize=12;align=center;fillColor=#BC6C25;strokeColor=#DDA15E;fontColor=#FEFAE0;" vertex="1" parent="1">
          <mxGeometry x="640" y="350" width="140" height="50" as="geometry" />
        </mxCell>
        <mxCell id="IWy26c3lg2tNG-WhKrLl-7" value="尝试获取B对象" style="html=1;verticalAlign=bottom;endArrow=block;labelBackgroundColor=none;fontFamily=Verdana;fontSize=12;edgeStyle=elbowEdgeStyle;elbow=vertical;strokeColor=#DDA15E;fontColor=#FEFAE0;exitX=1;exitY=1.02;exitDx=0;exitDy=0;exitPerimeter=0;" edge="1" parent="1" source="IWy26c3lg2tNG-WhKrLl-3" target="IWy26c3lg2tNG-WhKrLl-6">
          <mxGeometry relative="1" as="geometry">
            <mxPoint x="550" y="350" as="sourcePoint" />
            <Array as="points">
              <mxPoint x="640" y="400" />
            </Array>
            <mxPoint x="550" y="490" as="targetPoint" />
          </mxGeometry>
        </mxCell>
        <mxCell id="IWy26c3lg2tNG-WhKrLl-8" value="返回成品B对象" style="html=1;verticalAlign=bottom;endArrow=block;labelBackgroundColor=none;fontFamily=Verdana;fontSize=12;edgeStyle=elbowEdgeStyle;elbow=vertical;strokeColor=#82b366;fontColor=#FEFAE0;fillColor=#d5e8d4;entryX=1;entryY=0.2;entryDx=0;entryDy=0;entryPerimeter=0;" edge="1" parent="1">
          <mxGeometry x="-0.0598" relative="1" as="geometry">
            <mxPoint x="640" y="351" as="sourcePoint" />
            <Array as="points">
              <mxPoint x="540" y="351" />
              <mxPoint x="470" y="341" />
              <mxPoint x="580" y="341" />
            </Array>
            <mxPoint x="470" y="351" as="targetPoint" />
            <mxPoint as="offset" />
          </mxGeometry>
        </mxCell>
        <mxCell id="IWy26c3lg2tNG-WhKrLl-9" value="getBean(A.class)" style="html=1;points=[];perimeter=orthogonalPerimeter;rounded=0;shadow=0;comic=0;labelBackgroundColor=none;strokeWidth=1;fontFamily=Verdana;fontSize=12;align=center;fillColor=#BC6C25;strokeColor=#DDA15E;fontColor=#FEFAE0;" vertex="1" parent="1">
          <mxGeometry x="640" y="520" width="140" height="50" as="geometry" />
        </mxCell>
        <mxCell id="IWy26c3lg2tNG-WhKrLl-10" value="依赖属性a" style="html=1;verticalAlign=bottom;endArrow=block;labelBackgroundColor=none;fontFamily=Verdana;fontSize=12;edgeStyle=elbowEdgeStyle;elbow=vertical;strokeColor=#DDA15E;fontColor=#FEFAE0;entryX=0.207;entryY=0.02;entryDx=0;entryDy=0;entryPerimeter=0;" edge="1" parent="1">
          <mxGeometry relative="1" as="geometry">
            <mxPoint x="660" y="400" as="sourcePoint" />
            <Array as="points">
              <mxPoint x="671" y="516" />
            </Array>
            <mxPoint x="659.98" y="521" as="targetPoint" />
          </mxGeometry>
        </mxCell>
        <mxCell id="IWy26c3lg2tNG-WhKrLl-11" value="注入属性a" style="html=1;verticalAlign=bottom;endArrow=block;labelBackgroundColor=none;fontFamily=Verdana;fontSize=12;edgeStyle=elbowEdgeStyle;elbow=vertical;strokeColor=#82b366;fontColor=#FEFAE0;fillColor=#d5e8d4;" edge="1" parent="1">
          <mxGeometry x="-0.0598" relative="1" as="geometry">
            <mxPoint x="750" y="520" as="sourcePoint" />
            <Array as="points">
              <mxPoint x="750" y="430" />
            </Array>
            <mxPoint x="750" y="398" as="targetPoint" />
            <mxPoint as="offset" />
          </mxGeometry>
        </mxCell>
        <mxCell id="IWy26c3lg2tNG-WhKrLl-12" value="将第二步中实例化的A&lt;br&gt;对象直接返回" style="html=1;points=[];perimeter=orthogonalPerimeter;rounded=0;shadow=0;comic=0;labelBackgroundColor=none;strokeWidth=1;fontFamily=Verdana;fontSize=12;align=center;fillColor=#BC6C25;strokeColor=#DDA15E;fontColor=#FEFAE0;horizontal=1;verticalAlign=middle;" vertex="1" parent="1">
          <mxGeometry x="930" y="520" width="140" height="50" as="geometry" />
        </mxCell>
        <mxCell id="IWy26c3lg2tNG-WhKrLl-13" value="尝试获取A对象" style="html=1;verticalAlign=bottom;endArrow=block;labelBackgroundColor=none;fontFamily=Verdana;fontSize=12;edgeStyle=elbowEdgeStyle;elbow=vertical;strokeColor=#DDA15E;fontColor=#FEFAE0;exitX=1;exitY=1.02;exitDx=0;exitDy=0;exitPerimeter=0;" edge="1" parent="1">
          <mxGeometry relative="1" as="geometry">
            <mxPoint x="780" y="571" as="sourcePoint" />
            <Array as="points">
              <mxPoint x="950" y="570" />
            </Array>
            <mxPoint x="930" y="570" as="targetPoint" />
          </mxGeometry>
        </mxCell>
        <mxCell id="IWy26c3lg2tNG-WhKrLl-14" value="返回成品A对象" style="html=1;verticalAlign=bottom;endArrow=block;labelBackgroundColor=none;fontFamily=Verdana;fontSize=12;edgeStyle=elbowEdgeStyle;elbow=vertical;strokeColor=#82b366;fontColor=#FEFAE0;fillColor=#d5e8d4;" edge="1" parent="1">
          <mxGeometry x="-0.0598" relative="1" as="geometry">
            <mxPoint x="930" y="520" as="sourcePoint" />
            <Array as="points">
              <mxPoint x="830" y="520" />
              <mxPoint x="760" y="510" />
              <mxPoint x="870" y="510" />
            </Array>
            <mxPoint x="780" y="520" as="targetPoint" />
            <mxPoint as="offset" />
          </mxGeometry>
        </mxCell>
      </root>
    </mxGraphModel>
  </diagram>
</mxfile>
